<svg width="26" height="15" viewBox="0 0 26 15" fill="none" xmlns="http://www.w3.org/2000/svg">
<path d="M24.8585 6.31563C25.1612 6.31563 25.4516 6.44041 25.6657 6.66252C25.8797 6.88464 26 7.18589 26 7.5C26 7.81412 25.8797 8.11537 25.6657 8.33748C25.4516 8.55959 25.1612 8.68438 24.8585 8.68438L10.7799 8.68438L10.7799 13.8167C10.7797 14.0508 10.7127 14.2795 10.5872 14.4741C10.4618 14.6687 10.2836 14.8203 10.0751 14.9099C9.86665 14.9995 9.63728 15.0229 9.41599 14.9773C9.19469 14.9317 8.99138 14.8191 8.83174 14.6536L0.333838 8.33696C0.120071 8.11489 8.56938e-08 7.81386 8.94366e-08 7.5C9.31793e-08 7.18614 0.120071 6.88511 0.333838 6.66304L8.83174 0.346375C8.99138 0.180947 9.19469 0.0683158 9.41599 0.0227026C9.63728 -0.0229107 9.86665 0.000539648 10.0751 0.0900963C10.2836 0.179653 10.4618 0.331297 10.5872 0.525875C10.7127 0.720453 10.7797 0.949238 10.7799 1.18333L10.7799 6.31563L24.8585 6.31563Z" fill="#090A3A"/>
</svg>
