<svg width="16" height="14" viewBox="0 0 16 14" fill="none" xmlns="http://www.w3.org/2000/svg">
<path d="M7.99999 13.75C7.77418 13.7497 7.55369 13.6815 7.36718 13.5542C4.60425 11.6786 3.40788 10.3926 2.748 9.58855C1.34175 7.87469 0.668509 6.11512 0.687494 4.20965C0.709642 2.02609 2.46148 0.25 4.59265 0.25C6.14234 0.25 7.21566 1.12293 7.84074 1.84996C7.86054 1.87276 7.885 1.89104 7.91248 1.90357C7.93995 1.9161 7.9698 1.92258 7.99999 1.92258C8.03019 1.92258 8.06004 1.9161 8.08751 1.90357C8.11499 1.89104 8.13945 1.87276 8.15925 1.84996C8.78433 1.12223 9.85765 0.25 11.4073 0.25C13.5385 0.25 15.2903 2.02609 15.3125 4.21C15.3315 6.11582 14.6575 7.87539 13.252 9.58891C12.5921 10.3929 11.3957 11.6789 8.63281 13.5545C8.44626 13.6817 8.22577 13.7498 7.99999 13.75Z" fill="#1893BB"/>
</svg>
