<svg width="16" height="10" viewBox="0 0 16 10" fill="none" xmlns="http://www.w3.org/2000/svg">
<path d="M15.1595 0.954511C14.9485 0.743606 14.6624 0.625126 14.3641 0.625126C14.0658 0.625126 13.7797 0.743605 13.5688 0.954511L8.00001 6.52326L2.43126 0.95451C2.21908 0.749582 1.9349 0.636188 1.63993 0.638752C1.34496 0.641315 1.06279 0.75963 0.854209 0.968214C0.645625 1.1768 0.527311 1.45896 0.524748 1.75393C0.522185 2.0489 0.635578 2.33308 0.840506 2.54526L7.20463 8.90938C7.4156 9.12029 7.7017 9.23877 8.00001 9.23877C8.29832 9.23877 8.58441 9.12029 8.79538 8.90938L15.1595 2.54526C15.3704 2.33429 15.4889 2.0482 15.4889 1.74989C15.4889 1.45158 15.3704 1.16548 15.1595 0.954511Z" fill="white" fill-opacity="0.6"/>
</svg>
