<svg width="24" height="14" viewBox="0 0 24 14" fill="none" xmlns="http://www.w3.org/2000/svg">
<path d="M12.724 13.24L23.344 2.09397C23.5213 1.90799 23.6202 1.66091 23.6202 1.40397C23.6202 1.14703 23.5213 0.899948 23.344 0.713972L23.332 0.701971C23.2461 0.611501 23.1427 0.539462 23.028 0.490234C22.9133 0.441007 22.7898 0.415621 22.665 0.415621C22.5403 0.415621 22.4168 0.441007 22.3021 0.490234C22.1874 0.539462 22.084 0.611501 21.998 0.701971L11.998 11.198L2.00205 0.701969C1.9161 0.611499 1.81265 0.53946 1.69798 0.490232C1.58332 0.441005 1.45984 0.415619 1.33505 0.415619C1.21026 0.415619 1.08678 0.441005 0.972116 0.490232C0.85745 0.53946 0.753997 0.611499 0.66805 0.701969L0.656049 0.71397C0.478759 0.899946 0.379857 1.14703 0.379857 1.40397C0.379857 1.66091 0.478759 1.90799 0.656049 2.09397L11.276 13.24C11.3694 13.338 11.4818 13.416 11.6062 13.4694C11.7307 13.5227 11.8647 13.5502 12 13.5502C12.1354 13.5502 12.2694 13.5227 12.3939 13.4694C12.5183 13.416 12.6307 13.338 12.724 13.24Z" fill="#1893BB"/>
</svg>
