<svg width="19" height="21" viewBox="0 0 19 21" fill="none" xmlns="http://www.w3.org/2000/svg">
<path d="M14.675 3.5475C13.906 2.66957 13.4822 1.54211 13.4825 0.375H10.0062V14.325C9.97943 15.0799 9.66072 15.7949 9.11723 16.3196C8.57374 16.8442 7.84787 17.1374 7.09249 17.1375C5.49499 17.1375 4.16749 15.8325 4.16749 14.2125C4.16749 12.2775 6.03499 10.8263 7.95874 11.4225V7.8675C4.07749 7.35 0.679993 10.365 0.679993 14.2125C0.679993 17.9587 3.78499 20.625 7.08124 20.625C10.6137 20.625 13.4825 17.7563 13.4825 14.2125V7.13625C14.8921 8.14858 16.5845 8.69173 18.32 8.68875V5.2125C18.32 5.2125 16.205 5.31375 14.675 3.5475Z" fill="#F7931D"/>
</svg>
