<svg width="132" height="132" viewBox="0 0 132 132" fill="none" xmlns="http://www.w3.org/2000/svg">
<circle cx="66" cy="66" r="66" fill="#090A3A"/>
<path d="M91.3655 77.2473C87.684 76.3803 85.7923 74.2498 84.2252 71.8782C83.2422 70.3945 81.0839 70.4849 80.0175 71.9106C77.5833 75.1678 73.9436 77.7735 68.1827 77.7735C62.3708 77.7735 58.7195 74.4561 56.283 71.3357C55.263 70.0328 53.3156 70.0491 52.4231 71.4423C50.7957 73.9855 48.904 76.3269 45 77.2473" stroke="white" stroke-width="3" stroke-linecap="round" stroke-linejoin="round"/>
<path d="M91.3655 85.4736C87.684 84.6066 85.7923 82.4761 84.2252 80.1045C83.2422 78.6208 81.0839 78.7112 80.0175 80.137C77.5833 83.3941 73.9436 85.9999 68.1827 85.9999C62.3708 85.9999 58.7195 82.6824 56.283 79.562C55.263 78.2592 53.3156 78.2754 52.4231 79.6687C50.7957 82.2118 48.904 84.5533 45 85.4736" stroke="white" stroke-width="3" stroke-linecap="round" stroke-linejoin="round"/>
<path d="M81.9 63.8645C81.3489 60.6253 79.6694 57.6856 77.1588 55.566C74.6482 53.4464 71.4685 52.2836 68.1827 52.2836C64.897 52.2836 61.7173 53.4464 59.2067 55.566C56.6961 57.6856 55.0165 60.6253 54.4655 63.8645M68.1827 43V45.3183M91.3655 66.1827H89.0472M47.3183 66.1827H45M84.5729 49.7925L83.6618 50.7036M52.7013 50.7013L51.7925 49.7925" stroke="white" stroke-width="3" stroke-linecap="round"/>
<path d="M109.595 83C102.681 100.008 85.9909 112 66.5 112C47.0091 112 30.319 100.008 23.4054 83" stroke="white" stroke-width="3" stroke-linecap="round"/>
<path d="M25.5295 68.0119C25.4914 69.0646 25.2738 70.0073 24.8768 70.8402C24.48 71.6664 23.9319 72.3403 23.2326 72.862C22.5268 73.3768 21.7016 73.6905 20.7569 73.8031L20.4676 71.291C21.3281 71.1086 22.0034 70.6961 22.4937 70.0535C22.9841 69.4041 23.2451 68.6464 23.2764 67.7803C23.295 67.2673 23.2325 66.7814 23.089 66.3225C22.9455 65.8637 22.7256 65.4889 22.4293 65.1979C22.1332 64.9004 21.7619 64.7435 21.3156 64.7274C21.1157 64.7201 20.9313 64.7468 20.7623 64.8074C20.5867 64.8677 20.4298 64.9621 20.2918 65.0906C20.1539 65.2123 20.028 65.3745 19.9139 65.5772C19.7934 65.773 19.6884 66.0027 19.5988 66.2663L18.3649 69.944C18.2601 70.2604 18.1243 70.6024 17.9575 70.97C17.7844 71.3306 17.5552 71.6725 17.27 71.9958C16.9784 72.3121 16.6155 72.5691 16.1814 72.7669C15.7409 72.9577 15.2041 73.0417 14.5712 73.0188C13.6452 72.9853 12.8774 72.724 12.2681 72.235C11.6523 71.7391 11.2022 71.089 10.9177 70.2849C10.6335 69.4741 10.5124 68.5824 10.5542 67.61C10.5966 66.6242 10.7983 65.7509 11.1594 64.9901C11.5138 64.2291 12.0136 63.6001 12.6586 63.1031C13.3037 62.6061 14.0731 62.2671 14.967 62.086L15.323 64.6906C14.8128 64.7788 14.3756 64.9698 14.0114 65.2635C13.6408 65.5503 13.3542 65.9101 13.1518 66.3431C12.9496 66.7694 12.8329 67.2288 12.8017 67.7213C12.7777 68.2008 12.8348 68.6498 12.9731 69.0684C13.1049 69.4801 13.3062 69.8176 13.5768 70.0809C13.8477 70.3376 14.1697 70.4726 14.5428 70.4861C14.8959 70.4989 15.1896 70.4028 15.4238 70.1978C15.6514 69.9926 15.8375 69.7358 15.9821 69.4275C16.1202 69.1123 16.2385 68.793 16.3369 68.4697L17.1498 65.9174C17.2558 65.5677 17.3968 65.1759 17.5726 64.742C17.7484 64.308 17.9869 63.8931 18.2881 63.497C18.5893 63.101 18.9778 62.7815 19.4535 62.5386C19.9295 62.289 20.5273 62.1772 21.2468 62.2032C21.993 62.2302 22.6436 62.4105 23.1985 62.7442C23.7471 63.0709 24.1984 63.5042 24.5524 64.044C24.9064 64.5838 25.1644 65.1969 25.3264 65.8832C25.4886 66.5628 25.5563 67.2724 25.5295 68.0119Z" fill="white"/>
<path d="M27.8468 57.141C27.5195 58.1703 27.0018 58.9955 26.2936 59.6168C25.5853 60.2381 24.757 60.6322 23.8084 60.7993C22.8555 60.958 21.8486 60.8687 20.7876 60.5314C19.7075 60.1879 18.8296 59.6709 18.1537 58.9803C17.4779 58.2897 17.0335 57.4873 16.8205 56.5732C16.6075 55.659 16.6616 54.6968 16.9828 53.6866C17.312 52.6511 17.8308 51.8226 18.539 51.2014C19.2472 50.5801 20.0788 50.1869 21.0337 50.0218C21.9823 49.8548 22.9871 49.9399 24.048 50.2773C25.1154 50.6166 25.9902 51.1326 26.6724 51.8252C27.3502 52.5095 27.7988 53.3097 28.0182 54.2259C28.2312 55.1401 28.174 56.1118 27.8468 57.141ZM25.693 56.4562C25.9839 55.5414 25.8951 54.7646 25.4266 54.1259C24.9581 53.4873 24.241 53.0144 23.2753 52.7074C22.2779 52.3902 21.412 52.3632 20.6777 52.6264C19.9371 52.8876 19.4234 53.4693 19.1365 54.3714C18.9406 54.9877 18.9187 55.5404 19.071 56.0296C19.2189 56.5103 19.5104 56.9248 19.9453 57.273C20.3739 57.6191 20.9122 57.8952 21.5603 58.1013C22.5577 58.4184 23.4268 58.4464 24.1674 58.1852C24.9037 57.9157 25.4122 57.3393 25.693 56.4562Z" fill="white"/>
<path d="M30.4292 50.762L17.6781 43.4477L18.8773 41.3573L31.6284 48.6716L30.4292 50.762Z" fill="white"/>
<path d="M42.8337 36.621C42.3851 37.1914 41.896 37.6954 41.3664 38.1329C40.8462 38.571 40.3061 38.8803 39.7462 39.0607C39.1819 39.2361 38.6253 39.2231 38.0764 39.0215C37.5834 38.8331 37.1714 38.5603 36.8406 38.2031C36.5099 37.8459 36.1424 37.4366 35.7381 36.9753L29.5495 29.9133L31.3545 28.3315L37.4509 35.2883C37.7365 35.6142 37.9894 35.8978 38.2097 36.1391C38.4351 36.3759 38.6635 36.5304 38.8949 36.6023C39.3391 36.745 39.7745 36.6603 40.2014 36.3483C40.6282 36.0363 41.0619 35.6208 41.5024 35.1018L42.8337 36.621ZM31.2983 34.8827L30.0526 33.4613L35.7158 28.4985L36.9614 29.9199L31.2983 34.8827Z" fill="white"/>
<path d="M49.025 33.5711C48.0694 34.0743 47.1213 34.2984 46.1808 34.2436C45.2403 34.1888 44.3736 33.8879 43.5809 33.3409C42.7909 32.7849 42.1365 32.0143 41.6179 31.0292C41.0899 30.0263 40.8277 29.0418 40.8313 28.0755C40.8349 27.1093 41.0818 26.2259 41.5719 25.4253C42.0621 24.6248 42.7762 23.9776 43.7141 23.4838C44.6756 22.9776 45.6267 22.7518 46.5672 22.8067C47.5077 22.8615 48.3759 23.1654 49.1717 23.7182C49.9645 24.2652 50.6202 25.0313 51.1389 26.0164C51.6607 27.0075 51.9213 27.9891 51.9208 28.9612C51.9231 29.9244 51.6808 30.8092 51.1937 31.6156C50.7035 32.4162 49.9806 33.068 49.025 33.5711ZM47.9721 31.5714C48.8216 31.1241 49.3037 30.5087 49.4185 29.7249C49.5333 28.9412 49.3546 28.1011 48.8825 27.2044C48.3949 26.2783 47.7973 25.6511 47.0896 25.323C46.3788 24.989 45.6046 25.0425 44.767 25.4836C44.1948 25.7848 43.7912 26.1631 43.5562 26.6183C43.324 27.0645 43.2405 27.5643 43.3058 28.1176C43.368 28.665 43.5575 29.2395 43.8743 29.8412C44.3619 30.7674 44.9611 31.3974 45.6718 31.7314C46.3854 32.0564 47.1522 32.0031 47.9721 31.5714Z" fill="white"/>
<path d="M59.0517 30.2318C58.0823 30.4488 57.182 30.3942 56.3506 30.068C55.5193 29.7418 54.8112 29.2035 54.2264 28.4531C53.6417 27.7028 53.2313 26.8006 52.9953 25.7467C52.7564 24.6798 52.7422 23.6856 52.9526 22.764C53.168 21.8345 53.5894 21.0467 54.2167 20.4007C54.8426 19.7482 55.6532 19.3105 56.6486 19.0876C57.6504 18.8633 58.5443 18.9193 59.3301 19.2557C60.121 19.5842 60.786 20.1287 61.3252 20.8893C61.8645 21.6498 62.2528 22.5603 62.4902 23.6207C62.7248 24.6681 62.7611 25.654 62.5991 26.5784C62.4357 27.4963 62.0606 28.2771 61.4738 28.9209C60.8869 29.5647 60.0796 30.0016 59.0517 30.2318ZM58.9408 28.0431C59.5718 27.9018 60.0472 27.6451 60.3669 27.2729C60.6917 26.8927 60.8837 26.4228 60.9428 25.863C61.0084 25.3018 60.9647 24.6796 60.8118 23.9965C60.6574 23.3069 60.4316 22.7256 60.1343 22.2524C59.8421 21.7713 59.4753 21.4299 59.0339 21.2281C58.591 21.0198 58.0704 20.9827 57.4718 21.1167C56.8408 21.258 56.3553 21.5307 56.0154 21.9347C55.674 22.3323 55.4647 22.8164 55.3875 23.387C55.3089 23.9512 55.341 24.552 55.4837 25.1896C55.6279 25.8336 55.8534 26.398 56.16 26.8827C56.4717 27.3594 56.8602 27.7063 57.3255 27.9232C57.7908 28.1401 58.3292 28.1801 58.9408 28.0431ZM61.9917 29.266L60.3355 21.8692L60.0427 21.9348L58.5525 15.2795L60.9238 14.7486L64.0702 28.8006L61.9917 29.266Z" fill="white"/>
<path d="M70.4715 29.5511C69.3926 29.5035 68.4609 29.2189 67.6764 28.6971C66.892 28.1754 66.2954 27.4785 65.8868 26.6063C65.4851 25.7277 65.3087 24.7323 65.3578 23.6201C65.4077 22.4879 65.6779 21.5055 66.1684 20.6729C66.6588 19.8404 67.3176 19.2021 68.1446 18.7581C68.9716 18.3141 69.9146 18.1154 70.9736 18.1621C72.0592 18.21 72.9942 18.4948 73.7787 19.0165C74.5632 19.5382 75.1596 20.2385 75.5679 21.1173C75.9766 21.9895 76.1564 22.9817 76.1073 24.094C76.058 25.2129 75.788 26.192 75.2972 27.0312C74.8134 27.864 74.1578 28.5057 73.3305 28.9564C72.5035 29.4004 71.5505 29.5986 70.4715 29.5511ZM70.5711 27.2933C71.5301 27.3355 72.2569 27.0473 72.7513 26.4284C73.2457 25.8096 73.5152 24.994 73.5598 23.9817C73.6059 22.936 73.4062 22.0931 72.9606 21.4528C72.5153 20.8059 71.8198 20.4616 70.8741 20.4199C70.228 20.3915 69.6888 20.5145 69.2562 20.789C68.8307 21.0572 68.5066 21.4467 68.2838 21.9574C68.0614 22.4614 67.9353 23.0531 67.9053 23.7324C67.8592 24.7781 68.0588 25.6243 68.5041 26.2712C68.9563 26.9118 69.6453 27.2525 70.5711 27.2933Z" fill="white"/>
<path d="M86.9609 34.4004C85.979 33.9197 85.2208 33.285 84.6864 32.4965C84.1521 31.7079 83.86 30.8337 83.8102 29.8741C83.7664 28.9174 83.9848 27.9481 84.4655 26.9661C84.9844 25.9063 85.6379 25.0868 86.4261 24.5077C87.2173 23.9227 88.0806 23.5919 89.0162 23.5155C89.9517 23.439 90.8955 23.6339 91.8476 24.0999C92.8535 24.5924 93.591 25.2466 94.06 26.0626C94.5379 26.8755 94.7379 27.7936 94.66 28.8169C94.5822 29.8402 94.217 30.9122 93.5645 32.0328L91.4179 30.9819L91.8048 30.1915C92.3147 29.1348 92.5058 28.2745 92.378 27.6107C92.2501 26.9469 91.794 26.423 91.0097 26.039C90.1235 25.6052 89.33 25.5582 88.6292 25.898C87.9314 26.2318 87.3245 26.9257 86.8086 27.9795C86.3279 28.9615 86.1712 29.8274 86.3385 30.5774C86.5058 31.3273 87.0026 31.9045 87.8289 32.309C88.3618 32.5699 88.877 32.6774 89.3745 32.6315C89.881 32.5825 90.3489 32.3848 90.7783 32.0383L92.5993 33.7314C91.8002 34.4239 90.8926 34.8221 89.8768 34.926C88.867 35.0329 87.895 34.8577 86.9609 34.4004ZM85.8314 28.2471L86.6316 26.6125L93.3049 29.8793L92.5047 31.5139L85.8314 28.2471Z" fill="white"/>
<path d="M92.7658 37.83L101.873 26.2912L103.765 27.7844L94.6575 39.3231L92.7658 37.83Z" fill="white"/>
<path d="M102.787 49.4216C102.379 48.7567 102.159 48.1174 102.127 47.5037C102.1 46.8866 102.224 46.3297 102.498 45.8331C102.776 45.3422 103.167 44.9416 103.673 44.6314C104.116 44.3595 104.559 44.1894 105.002 44.121C105.451 44.0492 105.897 44.0883 106.341 44.2383C106.791 44.3849 107.248 44.652 107.713 45.0396C108.058 45.3358 108.431 45.7015 108.831 46.1367C109.234 46.5775 109.654 47.0634 110.089 47.5942C110.533 48.1273 110.999 48.6824 111.486 49.2596L110.618 48.7827C111.258 48.398 111.64 47.9684 111.763 47.4938C111.887 47.0193 111.738 46.4382 111.316 45.7506C111.062 45.3357 110.719 44.9943 110.289 44.7264C109.859 44.4585 109.361 44.3924 108.795 44.5283L108.233 42.2922C109.151 42.042 110.041 42.0905 110.903 42.4376C111.768 42.7905 112.534 43.5097 113.2 44.5951C113.702 45.4134 114.009 46.2142 114.122 46.9975C114.238 47.7864 114.085 48.518 113.661 49.1921C113.439 49.5556 113.167 49.859 112.847 50.1022C112.533 50.3419 112.177 50.5838 111.779 50.8278L106.127 54.2942L105.024 52.4955L107.019 51.2721L106.878 51.7691C105.958 51.7621 105.172 51.5759 104.517 51.2107C103.873 50.8477 103.296 50.2513 102.787 49.4216ZM104.674 48.827C104.96 49.293 105.287 49.6402 105.653 49.8687C106.02 50.0973 106.383 50.235 106.74 50.2818C107.1 50.3343 107.407 50.3302 107.659 50.2694C107.987 50.217 108.321 50.0937 108.664 49.8994C109.015 49.7074 109.296 49.5468 109.506 49.4179L109.706 50.1637C109.229 49.6035 108.818 49.1244 108.472 48.7265C108.126 48.3285 107.822 47.9913 107.559 47.7149C107.301 47.435 107.057 47.1973 106.828 47.0017C106.596 46.8153 106.373 46.6746 106.158 46.5795C105.944 46.4844 105.734 46.4367 105.531 46.4364C105.331 46.4418 105.131 46.5054 104.932 46.6274C104.705 46.7669 104.538 46.9474 104.432 47.1691C104.331 47.3874 104.296 47.6358 104.326 47.9145C104.359 48.1989 104.476 48.503 104.674 48.827Z" fill="white"/>
<path d="M120.218 58.5406C120.125 58.2343 120.105 57.9237 120.156 57.6088C120.207 57.2939 120.28 56.9828 120.376 56.6755C120.477 56.3663 120.561 56.0797 120.628 55.8159C120.697 55.5584 120.703 55.3372 120.647 55.1521C120.583 54.9415 120.436 54.8328 120.204 54.8262C119.978 54.8177 119.727 54.897 119.45 55.0641L119.011 53.6089C119.723 53.1991 120.384 53.0482 120.995 53.1563C121.614 53.2689 122.035 53.6954 122.259 54.4357C122.351 54.7421 122.372 55.0527 122.321 55.3676C122.271 55.6889 122.195 56.0009 122.091 56.3038C121.996 56.6111 121.914 56.8935 121.846 57.1509C121.779 57.4148 121.775 57.6424 121.833 57.8339C121.892 58.0317 122.036 58.1381 122.263 58.153C122.499 58.1724 122.756 58.0912 123.036 57.9094L123.475 59.3645C122.773 59.7853 122.11 59.9403 121.484 59.8296C120.866 59.717 120.443 59.2874 120.218 58.5406ZM108.616 63.0145L113.594 61.5117C113.919 61.4135 114.273 61.2823 114.655 61.1181C115.038 60.954 115.386 60.7341 115.699 60.4583C116.021 60.187 116.251 59.853 116.389 59.4562C116.529 59.0658 116.516 58.5962 116.35 58.0473C116.262 57.7537 116.126 57.4778 115.944 57.2195C115.761 56.9612 115.516 56.7496 115.209 56.5847C114.91 56.4243 114.535 56.3356 114.084 56.3185C113.64 56.2995 113.101 56.3853 112.47 56.576L112.64 55.0308C113.521 54.7649 114.37 54.6932 115.187 54.8157C116.006 54.9445 116.726 55.2773 117.347 55.8139C117.975 56.3485 118.436 57.1009 118.729 58.071C118.96 58.8369 119.023 59.5072 118.918 60.0821C118.813 60.657 118.607 61.1509 118.3 61.564C117.993 61.977 117.637 62.3212 117.233 62.5964C116.828 62.8717 116.431 63.0892 116.04 63.2488C115.658 63.413 115.343 63.5326 115.094 63.6077L109.321 65.3504L108.616 63.0145ZM106.451 55.8441L116.79 52.7229L117.412 54.7812L114.205 55.7493L114.288 56.027L107.156 58.1799L106.451 55.8441Z" fill="white"/>
<path d="M108.932 71.4349C108.9 70.3554 109.116 69.4054 109.58 68.5851C110.043 67.7647 110.695 67.119 111.535 66.6479C112.382 66.1833 113.361 65.9349 114.474 65.9028C115.607 65.8701 116.607 66.0681 117.473 66.4966C118.339 66.9251 119.023 67.5356 119.526 68.3281C120.029 69.1206 120.296 70.0467 120.327 71.1062C120.358 72.1924 120.142 73.1457 119.679 73.9661C119.216 74.7864 118.561 75.4323 117.714 75.9035C116.874 76.3746 115.897 76.6262 114.785 76.6583C113.665 76.6906 112.669 76.4926 111.796 76.0642C110.93 75.6424 110.243 75.0353 109.733 74.243C109.23 73.4505 108.963 72.5145 108.932 71.4349ZM111.191 71.3698C111.218 72.3294 111.559 73.0332 112.212 73.4812C112.865 73.9292 113.698 74.1386 114.711 74.1094C115.757 74.0792 116.583 73.8186 117.19 73.3276C117.802 72.8364 118.095 72.1177 118.068 71.1714C118.049 70.525 117.887 69.9961 117.582 69.5847C117.283 69.1798 116.871 68.8849 116.346 68.7C115.827 68.5149 115.228 68.4321 114.548 68.4517C113.502 68.4819 112.672 68.7426 112.059 69.2338C111.453 69.7315 111.164 70.4435 111.191 71.3698Z" fill="white"/>
</svg>
