<svg width="23" height="22" viewBox="0 0 23 22" fill="none" xmlns="http://www.w3.org/2000/svg">
<path d="M3.34375 0.109375C2.70972 0.109375 2.10165 0.361244 1.65332 0.809573C1.20499 1.2579 0.953125 1.86597 0.953125 2.5C0.953125 3.13403 1.20499 3.7421 1.65332 4.19043C2.10165 4.63876 2.70972 4.89062 3.34375 4.89062C3.97778 4.89062 4.58585 4.63876 5.03418 4.19043C5.48251 3.7421 5.73438 3.13403 5.73438 2.5C5.73438 1.86597 5.48251 1.2579 5.03418 0.809573C4.58585 0.361244 3.97778 0.109375 3.34375 0.109375ZM1.09375 6.85938C1.05645 6.85938 1.02069 6.87419 0.994313 6.90056C0.967941 6.92694 0.953125 6.9627 0.953125 7V21.625C0.953125 21.7026 1.01613 21.7656 1.09375 21.7656H5.59375C5.63105 21.7656 5.66681 21.7508 5.69319 21.7244C5.71956 21.6981 5.73438 21.6623 5.73438 21.625V7C5.73438 6.9627 5.71956 6.92694 5.69319 6.90056C5.66681 6.87419 5.63105 6.85938 5.59375 6.85938H1.09375ZM8.40625 6.85938C8.36895 6.85938 8.33319 6.87419 8.30681 6.90056C8.28044 6.92694 8.26562 6.9627 8.26562 7V21.625C8.26562 21.7026 8.32863 21.7656 8.40625 21.7656H12.9062C12.9435 21.7656 12.9793 21.7508 13.0057 21.7244C13.0321 21.6981 13.0469 21.6623 13.0469 21.625V13.75C13.0469 13.1906 13.2691 12.654 13.6647 12.2584C14.0603 11.8629 14.5968 11.6406 15.1562 11.6406C15.7157 11.6406 16.2522 11.8629 16.6478 12.2584C17.0434 12.654 17.2656 13.1906 17.2656 13.75V21.625C17.2656 21.7026 17.3286 21.7656 17.4062 21.7656H21.9062C21.9435 21.7656 21.9793 21.7508 22.0057 21.7244C22.0321 21.6981 22.0469 21.6623 22.0469 21.625V11.9275C22.0469 9.19713 19.6731 7.06188 16.9563 7.30825C16.1156 7.38477 15.2922 7.59281 14.5161 7.92475L13.0469 8.55475V7C13.0469 6.9627 13.0321 6.92694 13.0057 6.90056C12.9793 6.87419 12.9435 6.85938 12.9062 6.85938H8.40625Z" fill="#F7931D"/>
</svg>
