<svg width="23" height="19" viewBox="0 0 23 19" fill="none" xmlns="http://www.w3.org/2000/svg">
<path fill-rule="evenodd" clip-rule="evenodd" d="M11.5 0.5C12.4619 0.5 13.4485 0.52475 14.4047 0.56525L15.5343 0.61925L16.6154 0.683375L17.6279 0.752L18.5526 0.824C19.5562 0.900812 20.5005 1.32907 21.2195 2.03342C21.9384 2.73777 22.386 3.67311 22.4834 4.67487L22.5284 5.153L22.6128 6.17675C22.6915 7.23762 22.75 8.39412 22.75 9.5C22.75 10.6059 22.6915 11.7624 22.6128 12.8233L22.5284 13.847C22.5138 14.0113 22.4991 14.1699 22.4834 14.3251C22.3859 15.3271 21.9382 16.2625 21.219 16.9669C20.4998 17.6713 19.5553 18.0994 18.5515 18.176L17.629 18.2469L16.6165 18.3166L15.5343 18.3807L14.4047 18.4347C13.4371 18.4768 12.4686 18.4986 11.5 18.5C10.5314 18.4986 9.56294 18.4768 8.59525 18.4347L7.46575 18.3807L6.38462 18.3166L5.37213 18.2469L4.44737 18.176C3.44382 18.0992 2.4995 17.6709 1.78053 16.9666C1.06157 16.2622 0.614021 15.3269 0.516625 14.3251L0.471625 13.847L0.38725 12.8233C0.30123 11.7175 0.25545 10.609 0.25 9.5C0.25 8.39412 0.3085 7.23762 0.38725 6.17675L0.471625 5.153C0.48625 4.98875 0.500875 4.83012 0.516625 4.67487C0.613983 3.67329 1.06137 2.73809 1.7801 2.03376C2.49884 1.32943 3.44289 0.901065 4.44625 0.824L5.36987 0.752L6.38238 0.683375L7.46463 0.61925L8.59412 0.56525C9.56219 0.523212 10.531 0.501457 11.5 0.5ZM9.25 6.77187V12.2281C9.25 12.7479 9.8125 13.0719 10.2625 12.8131L14.9875 10.085C15.0903 10.0258 15.1757 9.94058 15.2351 9.83788C15.2945 9.73517 15.3258 9.61863 15.3258 9.5C15.3258 9.38137 15.2945 9.26483 15.2351 9.16212C15.1757 9.05942 15.0903 8.97418 14.9875 8.915L10.2625 6.188C10.1599 6.12874 10.0434 6.09755 9.92489 6.09757C9.80637 6.09759 9.68994 6.12881 9.58731 6.18811C9.48469 6.2474 9.39948 6.33268 9.34027 6.43535C9.28106 6.53802 9.24992 6.65448 9.25 6.773V6.77187Z" fill="#F7931D"/>
</svg>
