<svg width="56" height="13" viewBox="0 0 56 13" fill="none" xmlns="http://www.w3.org/2000/svg">
<path d="M8.95835 6.76595H8.86922L6.23088 1.17553C6.15245 1.00796 5.98131 0.901001 5.79592 0.901001H0.850824C0.583425 0.901001 0.369507 1.11492 0.369507 1.38232V11.8893C0.369507 12.1567 0.583425 12.3706 0.850824 12.3706H4.40544C4.67284 12.3706 4.88676 12.1567 4.88676 11.8893V6.45576H4.97589L7.80319 12.1068C7.88519 12.2708 8.05276 12.3742 8.23459 12.3742H12.9943C13.2617 12.3742 13.4756 12.1603 13.4756 11.8929V1.38232C13.4756 1.11492 13.2617 0.901001 12.9943 0.901001H9.43967C9.17227 0.901001 8.95835 1.11492 8.95835 1.38232V6.76595Z" fill="#5B5C73"/>
<path d="M19.8471 7.3434H26.1934C26.3467 7.3434 26.475 7.21862 26.475 7.06174V6.20963C26.475 6.05632 26.3502 5.92797 26.1934 5.92797H19.8471V4.30932H26.4821C26.7495 4.30932 26.9635 4.0954 26.9635 3.828V1.3822C26.9635 1.1148 26.7495 0.900879 26.4821 0.900879H15.4439C15.1765 0.900879 14.9626 1.1148 14.9626 1.3822V11.8963C14.9626 12.1566 15.1765 12.3705 15.4368 12.3705H26.557C26.8244 12.3705 27.0383 12.1566 27.0383 11.8892V9.59312C27.0383 9.32572 26.8244 9.1118 26.557 9.1118H19.8471V7.3434Z" fill="#5B5C73"/>
<path d="M41.6268 5.43953C41.6268 1.45707 39.345 0.900879 36.3252 0.900879H29.002C28.7346 0.900879 28.5207 1.1148 28.5207 1.3822V11.8892C28.5207 12.1566 28.7346 12.3705 29.002 12.3705H32.9239C33.1913 12.3705 33.4052 12.1566 33.4052 11.8892V9.86408H34.2323C34.4926 11.1262 35.5087 12.1031 36.7887 12.317C36.942 12.3491 37.1024 12.3705 37.2771 12.3705H41.1455C41.4129 12.3705 41.6268 12.1566 41.6268 11.8892V9.86408C41.6268 9.59668 41.4129 9.38276 41.1455 9.38276H39.566C40.903 8.83727 41.6268 7.71063 41.6268 5.43953ZM33.4087 4.27723H35.6121C36.154 4.27723 36.6068 4.69794 36.6496 5.2363C36.7494 6.49129 36.3573 6.912 35.2734 6.94765H33.4087V4.27723Z" fill="#5B5C73"/>
<path d="M56 6.56973C56 2.40544 53.9856 0.900879 50.078 0.900879H43.5998C43.3324 0.900879 43.1185 1.1148 43.1185 1.3822V11.825C43.1185 12.1281 43.3645 12.3705 43.664 12.3705H50.078C53.9856 12.3705 56 10.8624 56 6.70165C56 6.68025 55.9964 6.65886 55.9964 6.63747C55.9964 6.61251 56 6.59469 56 6.56973ZM49.2437 8.84797H47.9246V7.55732V4.42341H49.2437C50.6984 4.42341 51.087 5.21848 51.1048 6.63747C51.087 8.0529 50.702 8.84797 49.2437 8.84797Z" fill="#5B5C73"/>
</svg>
