<svg width="356" height="53" viewBox="0 0 356 53" fill="none" xmlns="http://www.w3.org/2000/svg">
<g clip-path="url(#clip0_969_22)">
<path d="M29.402 29.3759C28.7873 13.25 15.8791 0.308105 0 0.308105V4.9302C12.8058 4.9302 23.4601 14.9961 24.6895 27.8352C25.3042 28.0407 25.8164 28.1434 26.4311 28.3488C27.4555 28.6569 28.3776 29.0678 29.402 29.3759Z" fill="#272655"/>
<path d="M20.899 27.0134C19.3623 16.6394 10.5519 8.73047 0 8.73047V13.3526C7.99079 13.3526 14.6498 19.2072 16.2889 26.9107C17.8256 26.808 19.3623 26.808 20.899 27.0134Z" fill="#272655"/>
<path d="M12.2935 27.3216C10.9617 21.6724 5.94187 17.3584 0 17.3584V21.3642C4.09784 21.3642 7.47856 24.3429 8.40058 28.246C9.52748 27.9379 10.6544 27.527 11.8837 27.3216C11.9862 27.3216 12.1911 27.3216 12.2935 27.3216Z" fill="#272655"/>
<path d="M0 24.9595V28.7599V30.0951C0.51223 30.0951 0.922014 30.0951 1.3318 30.0951C2.6636 29.9924 3.89295 29.787 5.01986 29.3761C4.61007 26.8083 2.56115 24.9595 0 24.9595Z" fill="#272655"/>
<path d="M61.8774 31.2246C61.2627 31.0192 60.7505 30.8138 60.1358 30.6083C55.8331 29.2731 51.223 28.8622 46.6129 29.7866C46.4081 29.7866 46.2032 29.8894 45.9983 29.8894C44.0518 30.3002 42.1053 30.9165 40.2613 31.5328C37.1879 32.5599 33.9096 32.7653 30.6314 32.0463C30.1191 31.9436 29.7094 31.8409 29.2996 31.7382C28.2751 31.4301 27.3531 31.1219 26.3286 30.8138C25.714 30.6083 25.2017 30.4029 24.5871 30.3002C23.3577 29.9921 22.0259 29.6839 20.7965 29.5812C19.2599 29.3758 17.7232 29.2731 16.084 29.3758C14.8547 29.3758 13.6253 29.5812 12.396 29.7866C12.2935 29.7866 12.0886 29.7866 11.9862 29.8894C10.7568 30.0948 9.62993 30.5056 8.40058 30.8138C7.47856 31.1219 6.55655 31.4301 5.73698 31.6355C5.63453 31.7382 5.42964 31.8409 5.22475 31.8409C3.9954 32.149 2.76604 32.4572 1.43424 32.5599C1.02446 32.5599 0.51223 32.5599 0 32.5599V32.7653V37.0793C2.15137 37.0793 4.30273 36.8739 6.35165 36.3603C8.19568 35.8467 9.93727 35.3332 11.6788 34.7169C14.4449 33.7925 17.3134 33.4843 20.2843 34.1006C21.9235 34.4087 23.5626 34.9223 25.0993 35.5386C29.402 37.0793 33.9096 37.4901 38.7246 36.7711C41.1833 36.463 43.4371 35.6413 45.5885 34.9223C49.8912 33.4843 54.0915 33.4843 58.2918 35.025C59.726 35.5386 61.1603 35.9494 62.5945 36.3603C64.6435 36.8739 66.6924 37.0793 68.8437 37.0793V32.5599C67.7168 32.5599 66.6924 32.4572 65.7704 32.2518C64.4386 32.149 63.1068 31.7382 61.8774 31.2246Z" fill="#272655"/>
<path d="M60.1358 38.4145C55.8331 37.0792 51.223 36.6684 46.6129 37.5928C44.4616 38.0036 42.3102 38.7226 40.2613 39.4416C37.1879 40.4688 33.9096 40.6742 30.6314 39.9552C29.0947 39.6471 27.7629 39.1335 26.3286 38.6199C21.7186 37.0792 17.006 36.6684 12.0886 37.5928C9.93727 38.0036 7.88835 38.7226 5.83942 39.4416C3.9954 40.0579 2.04892 40.4688 0 40.366V44.8854C2.15137 44.8854 4.30273 44.68 6.35165 44.1664C8.19568 43.6529 9.93727 43.1393 11.6788 42.523C14.4449 41.5986 17.3134 41.2905 20.2843 41.9067C21.9235 42.2149 23.5626 42.7285 25.0993 43.3447C29.402 44.8854 33.9096 45.2963 38.7246 44.5773C41.1833 44.2692 43.4371 43.4474 45.5885 42.7285C49.8912 41.2905 54.0915 41.2905 58.2918 42.8312C59.726 43.3447 61.1603 43.7556 62.5945 44.1664C64.6435 44.68 66.6924 44.8854 68.8437 44.8854V40.366C66.2826 40.366 64.0288 39.8525 61.8774 39.0308C61.3652 38.8254 60.7505 38.6199 60.1358 38.4145Z" fill="#272655"/>
<path d="M60.1358 46.5292C55.8331 45.194 51.223 44.7831 46.6129 45.7075C44.4616 46.1184 42.3102 46.8374 40.2613 47.5564C37.1879 48.5835 33.9096 48.7889 30.6314 48.0699C29.0947 47.7618 27.7629 47.2482 26.3286 46.7347C21.7186 45.194 17.006 44.7831 12.0886 45.7075C9.93727 46.1184 7.88835 46.8374 5.83942 47.5564C3.9954 48.1727 2.04892 48.5835 0 48.4808V53.0002C2.15137 53.0002 4.30273 52.7948 6.35165 52.2812C8.19568 51.7676 9.93727 51.2541 11.6788 50.6378C14.4449 49.7134 17.3134 49.4052 20.2843 50.0215C21.9235 50.3296 23.5626 50.8432 25.0993 51.4595C29.402 53.0002 33.9096 53.411 38.7246 52.692C41.1833 52.3839 43.4371 51.5622 45.5885 50.8432C49.8912 49.4052 54.0915 49.4052 58.2918 50.9459C59.726 51.4595 61.1603 51.8703 62.5945 52.2812C64.6435 52.7948 66.6924 53.0002 68.8437 53.0002V48.4808C66.2826 48.4808 64.0288 47.9672 61.8774 47.1455C61.3652 46.8374 60.7505 46.632 60.1358 46.5292Z" fill="#272655"/>
<path d="M68.3316 0H32.6803C31.9632 0 31.5534 0.924419 32.0657 1.43798L34.1146 3.80039C34.217 3.9031 41.6956 12.4283 43.0274 19.3101V19.4128C43.2323 20.4399 44.0518 21.1589 45.0763 21.1589H60.5457V8.62791C60.5457 8.01163 60.0334 7.60078 59.5212 7.60078H48.2521C48.2521 10.0659 50.3011 12.1202 52.7598 12.1202H54.9111C55.5258 12.1202 55.9356 12.6337 55.9356 13.1473V16.5368H48.3546C47.4326 16.5368 46.7154 16.0233 46.4081 15.2016C44.9739 11.1957 42.4127 7.29264 40.3638 4.51938H63.619C64.2337 4.51938 64.7459 5.03295 64.7459 5.64922V23.5213C64.7459 24.1376 64.2337 24.6512 63.619 24.6512H41.4907C40.4662 24.6512 39.6467 23.9322 39.4418 22.905C37.0855 10.1686 25.3042 0.924419 24.792 0.513566L23.6651 1.95155C22.7431 3.18411 22.8455 4.82752 23.9724 5.85465C27.6605 9.24419 35.139 17.4612 35.2415 26.9109V27.1163C35.2415 28.2461 36.1635 29.1705 37.3929 29.1705H37.5977C38.5198 28.9651 39.4418 28.7597 40.4662 28.4516C42.3103 27.8353 44.2567 27.219 46.2032 26.8081C46.4081 26.8081 46.613 26.7054 46.8179 26.7054C51.428 25.781 55.9356 26.1919 60.3408 27.5271C60.9554 27.7326 61.5701 27.938 62.0823 28.1434C63.3117 28.5543 64.6435 28.9651 65.9753 29.2733H66.0777H68.5365C69.1511 29.2733 69.6634 28.7597 69.6634 28.1434V1.12985C69.4585 0.513566 68.9462 0 68.3316 0Z" fill="#272655"/>
<path d="M113.408 10.0659H81.3422V14.5853H94.6601V48.1725H100.09V14.5853H113.408V10.0659Z" fill="#272655"/>
<path d="M136.048 22.1862C133.795 20.44 130.516 19.5156 126.214 19.5156C122.423 19.5156 119.555 20.2346 117.403 21.7753C115.252 23.316 114.227 25.3703 114.227 28.0408V28.2462H119.145V28.0408C119.145 26.6028 119.759 25.473 120.989 24.6513C122.218 23.8296 123.96 23.4187 126.316 23.4187C131.643 23.4187 134.409 25.5757 134.409 29.7869V31.7385H124.882C121.091 31.7385 118.12 32.4575 116.174 33.8955C114.227 35.3335 113.203 37.3877 113.203 39.9555C113.203 42.7288 114.125 44.7831 116.071 46.3238C118.018 47.7617 120.784 48.4807 124.472 48.4807C128.98 48.4807 132.36 47.3509 134.409 44.9885V48.1726H139.327V29.7869C139.429 26.3974 138.302 23.9323 136.048 22.1862ZM134.307 37.4904C134.307 39.9555 133.59 41.7017 132.155 42.9342C130.721 44.0641 128.467 44.6804 125.496 44.6804C123.038 44.6804 121.091 44.2695 119.964 43.5505C118.735 42.7288 118.223 41.599 118.223 39.9555C118.223 38.4149 118.837 37.1823 120.067 36.4633C121.296 35.7443 123.14 35.3335 125.804 35.3335H134.512V37.4904H134.307Z" fill="#272655"/>
<path d="M163.401 19.6182C161.353 19.6182 159.509 19.9264 157.869 20.6454C156.23 21.3644 154.898 22.3915 153.772 23.7268V10.0659H148.649V48.1725H153.772V31.6357C153.772 29.1706 154.489 27.3217 156.025 25.8837C157.562 24.4458 159.611 23.8295 162.172 23.8295C164.631 23.8295 166.475 24.4458 167.807 25.6783C169.138 26.9109 169.753 28.657 169.753 31.1221V48.2752H174.875V30.4031C174.875 27.0136 173.851 24.343 171.904 22.4942C169.753 20.5427 166.987 19.6182 163.401 19.6182Z" fill="#272655"/>
<path d="M189.525 19.9263H184.403V48.1724H189.525V19.9263Z" fill="#272655"/>
<path d="M189.525 10.1685H184.403V15.2014H189.525V10.1685Z" fill="#272655"/>
<path d="M207.351 11.812L202.228 13.7636V19.9264H196.901V23.4186H202.228V40.0581C202.228 45.5019 205.302 48.1725 211.346 48.1725H214.727V44.064H212.166C210.424 44.064 209.195 43.7558 208.375 43.0368C207.658 42.4205 207.248 41.2907 207.248 39.75V23.4186H215.342V19.9264H207.248V11.812H207.351Z" fill="#272655"/>
<path d="M228.557 19.9263H223.435V48.1724H228.557V19.9263Z" fill="#272655"/>
<path d="M228.557 10.1685H223.435V15.2014H228.557V10.1685Z" fill="#272655"/>
<path d="M253.451 19.002C251.607 19.002 249.968 19.3101 248.534 20.0291C247.1 20.6454 245.87 21.5698 244.846 22.8024V10.0659H237.47V48.1725H244.744V45.1938C246.895 47.4535 249.866 48.5834 253.554 48.5834C255.91 48.5834 257.959 48.0698 259.803 47.0427C261.647 46.0155 263.081 44.4748 264.106 42.5233C265.13 40.469 265.643 38.1066 265.643 35.3334V31.8411C265.643 27.6299 264.516 24.4458 262.364 22.2888C260.11 20.0291 257.14 19.002 253.451 19.002ZM258.164 35.1279C258.164 37.5931 257.652 39.4419 256.525 40.6744C255.398 41.907 253.759 42.5233 251.71 42.5233C249.559 42.5233 247.919 41.907 246.69 40.6744C245.461 39.4419 244.846 37.7985 244.846 35.6415V32.0465C244.846 29.7869 245.461 28.1434 246.588 26.9109C247.817 25.6783 249.456 25.062 251.505 25.062C255.91 25.062 258.164 27.4244 258.164 32.1493V35.1279Z" fill="#272655"/>
<path d="M281.009 41.3934C280.395 40.7772 280.087 39.8527 280.087 38.4148V10.0659H272.711V38.9283C272.711 42.0097 273.531 44.3721 275.273 45.9128C277.014 47.4535 279.575 48.1725 283.058 48.1725H287.156V42.2151H284.39C282.751 42.3179 281.624 42.0097 281.009 41.3934Z" fill="#272655"/>
<path d="M312.768 35.8467C312.768 38.1064 312.256 39.7498 311.231 40.8797C310.207 42.0095 308.567 42.5231 306.314 42.5231C304.06 42.5231 302.421 41.9068 301.396 40.7769C300.372 39.6471 299.86 38.0037 299.86 35.744V19.4126H292.483V36.0521C292.483 40.1607 293.61 43.3448 295.967 45.399C298.323 47.556 301.704 48.5831 306.314 48.5831C310.924 48.5831 314.304 47.556 316.661 45.399C319.017 43.3448 320.144 40.1607 320.144 36.0521V19.4126H312.768V35.8467Z" fill="#272655"/>
<path d="M341.658 19.002C337.15 19.002 333.667 20.1318 331.106 22.4942C328.544 24.8566 327.315 28.2461 327.315 32.5601V35.0252C327.315 39.4419 328.647 42.8314 331.208 45.1938C333.769 47.5562 337.355 48.6861 341.965 48.6861C345.96 48.6861 349.239 47.8644 351.697 46.2209C354.156 44.5775 355.488 42.3178 355.693 39.5446V39.2365H348.419L348.317 39.4419C348.112 40.469 347.497 41.2907 346.472 41.907C345.346 42.5233 344.014 42.8314 342.272 42.8314C337.15 42.8314 334.589 40.5717 334.589 35.9496V35.8469H355.898V32.5601C355.898 28.2461 354.668 24.9593 352.107 22.5969C349.648 20.1318 346.063 19.002 341.658 19.002ZM348.624 31.0194H334.691C334.999 26.9109 337.252 24.8566 341.658 24.8566C343.809 24.8566 345.448 25.3702 346.677 26.2946C347.907 27.219 348.521 28.7597 348.521 30.6085V31.0194H348.624Z" fill="#272655"/>
</g>
<defs>
<clipPath id="clip0_969_22">
<rect width="356" height="53" fill="white"/>
</clipPath>
</defs>
</svg>
