<svg width="60" height="60" viewBox="0 0 60 60" fill="none" xmlns="http://www.w3.org/2000/svg">
<circle cx="30" cy="30" r="30" fill="#F7931D"/>
<path d="M38.1626 21.8513C38.0354 21.7238 37.8843 21.6227 37.7179 21.5537C37.5516 21.4847 37.3733 21.4492 37.1932 21.4492C37.0131 21.4492 36.8348 21.4847 36.6685 21.5537C36.5021 21.6227 36.351 21.7238 36.2238 21.8513L29.5001 28.5613L22.7763 21.8376C22.649 21.7103 22.4979 21.6093 22.3316 21.5404C22.1652 21.4715 21.987 21.436 21.8069 21.436C21.6269 21.436 21.4486 21.4715 21.2823 21.5404C21.116 21.6093 20.9649 21.7103 20.8376 21.8376C20.7103 21.9649 20.6093 22.116 20.5404 22.2823C20.4715 22.4486 20.436 22.6269 20.436 22.8069C20.436 22.987 20.4715 23.1652 20.5404 23.3316C20.6093 23.4979 20.7103 23.649 20.8376 23.7763L27.5613 30.5001L20.8376 37.2238C20.7103 37.3511 20.6093 37.5022 20.5404 37.6686C20.4715 37.8349 20.436 38.0132 20.436 38.1932C20.436 38.3732 20.4715 38.5515 20.5404 38.7178C20.6093 38.8841 20.7103 39.0353 20.8376 39.1626C20.9649 39.2899 21.116 39.3908 21.2823 39.4597C21.4486 39.5286 21.6269 39.5641 21.8069 39.5641C21.987 39.5641 22.1652 39.5286 22.3316 39.4597C22.4979 39.3908 22.649 39.2899 22.7763 39.1626L29.5001 32.4388L36.2238 39.1626C36.3511 39.2899 36.5022 39.3908 36.6686 39.4597C36.8349 39.5286 37.0132 39.5641 37.1932 39.5641C37.3732 39.5641 37.5515 39.5286 37.7178 39.4597C37.8841 39.3908 38.0353 39.2899 38.1626 39.1626C38.2899 39.0353 38.3908 38.8841 38.4597 38.7178C38.5286 38.5515 38.5641 38.3732 38.5641 38.1932C38.5641 38.0132 38.5286 37.8349 38.4597 37.6686C38.3908 37.5022 38.2899 37.3511 38.1626 37.2238L31.4388 30.5001L38.1626 23.7763C38.6851 23.2538 38.6851 22.3738 38.1626 21.8513Z" fill="white"/>
</svg>
