<svg width="60" height="60" viewBox="0 0 60 60" fill="none" xmlns="http://www.w3.org/2000/svg">
<circle cx="30" cy="30" r="30" fill="#F7931D"/>
<path d="M13.125 22.5796C14.1346 22.61 15.0361 22.3666 15.9375 22.0015C16.9111 21.6059 17.8846 21.1799 18.9303 20.906C21.274 20.3583 23.5457 20.6322 25.7091 21.545C26.3942 21.8493 27.0433 22.1536 27.7644 22.3362C29.3149 22.7622 30.8654 22.61 32.3438 22.0015C33.3173 21.6059 34.3269 21.1799 35.3726 20.9365C37.5721 20.3887 39.7356 20.6017 41.7909 21.4233C42.0793 21.545 42.3317 21.6363 42.6202 21.758C43.6659 22.2449 44.7115 22.61 45.9375 22.5796V25.2877C44.8918 25.3182 43.9183 25.1964 42.9447 24.8922C42.2236 24.6792 41.5385 24.4053 40.8894 24.101C38.8702 23.1577 36.887 23.1577 34.8317 24.0097C33.7861 24.4662 32.7043 24.9226 31.5505 25.1356C29.2788 25.5312 27.1154 25.2573 25.0601 24.3749C24.3029 24.0402 23.5457 23.7359 22.7524 23.5229C21.3462 23.1882 19.976 23.3707 18.6779 23.888C17.8486 24.2227 17.0192 24.5574 16.1538 24.8617C15.1803 25.1964 14.1707 25.3182 13.125 25.2877V22.5796Z" fill="white"/>
<path d="M13.125 29.6911C14.0615 29.7156 14.9259 29.5442 15.7543 29.2749C16.6188 29.0055 17.4472 28.6872 18.3116 28.4913C20.7248 27.9282 23.102 28.0261 25.4072 28.7852C26.1996 29.03 26.956 29.3238 27.7484 29.5197C29.2971 29.887 30.8099 29.7401 32.2866 29.2504C33.2951 28.9321 34.3036 28.5893 35.3842 28.3689C37.6894 27.9037 39.9225 28.1241 42.0836 28.8586C42.8039 29.1035 43.5243 29.3483 44.2807 29.5442C44.7849 29.6666 45.3612 29.6911 45.9375 29.7646C45.9375 30.4501 45.9375 31.1602 45.9375 31.8703C45.2171 31.8947 44.4968 31.8213 43.8124 31.7233C42.8039 31.5764 41.8675 31.2826 40.967 30.9398C39.5983 30.4256 38.1576 30.1808 36.6448 30.4012C35.9605 30.4991 35.3122 30.695 34.6999 30.8909C33.5833 31.2581 32.5027 31.6254 31.2781 31.7723C29.117 32.0172 27.064 31.7968 25.119 31.1112C24.3987 30.8664 23.6423 30.597 22.8859 30.4501C21.4452 30.1808 20.0405 30.3032 18.7078 30.744C18.0955 30.9643 17.4472 31.1847 16.7988 31.3806C15.6463 31.7233 14.4577 31.8947 13.197 31.8703V29.6911H13.125Z" fill="white"/>
<path d="M13.125 36.6451C14.0615 36.6757 14.9259 36.4615 15.7543 36.1248C16.6188 35.7882 17.4472 35.3903 18.3116 35.1454C20.7248 34.4415 23.102 34.5639 25.4072 35.5127C26.1996 35.8188 26.956 36.186 27.7484 36.4309C29.2971 36.89 30.8099 36.7063 32.2866 36.0942C33.2951 35.6963 34.3036 35.2679 35.3842 34.9924C37.6894 34.4109 39.9225 34.6863 42.0836 35.6045C42.8039 35.9106 43.5243 36.2166 44.2807 36.4615C44.7849 36.6145 45.3612 36.6451 45.9375 36.7369C45.9375 37.5939 45.9375 38.4815 45.9375 39.3691C45.2171 39.3997 44.4968 39.3079 43.8124 39.1854C42.8039 39.0018 41.8675 38.6345 40.967 38.206C39.5983 37.5633 38.1576 37.2572 36.6448 37.5327C35.9605 37.6551 35.3122 37.9 34.6999 38.1448C33.5833 38.6039 32.5027 39.063 31.2781 39.2466C29.117 39.5527 27.064 39.2773 25.119 38.4203C24.3987 38.1142 23.6423 37.7776 22.8859 37.5939C21.4452 37.2572 20.0405 37.4103 18.7078 37.9612C18.0955 38.2366 17.4472 38.5121 16.7988 38.7569C15.6463 39.1854 14.4577 39.3997 13.197 39.3691V36.6451H13.125Z" fill="white"/>
</svg>
