<svg width="54" height="22" viewBox="0 0 54 22" fill="none" xmlns="http://www.w3.org/2000/svg">
<g clip-path="url(#clip0_263_1788)">
<path d="M0 3.95497C1.66154 4.01676 3.14506 3.52238 4.62857 2.78081C6.23077 1.97744 7.83297 1.11227 9.55385 0.556089C13.411 -0.556271 17.1495 -9.07723e-05 20.7099 1.85384C21.8374 2.47182 22.9055 3.0898 24.0923 3.46058C26.644 4.32575 29.1956 4.01676 31.6286 2.78081C33.2308 1.97744 34.8923 1.11227 36.6132 0.617887C40.233 -0.494473 43.7934 -0.0618886 47.1758 1.60665C47.6506 1.85384 48.0659 2.03924 48.5407 2.28643C50.2615 3.27519 51.9824 4.01676 54 3.95497V9.45497C52.2791 9.51676 50.6769 9.26957 49.0747 8.6516C47.8879 8.21901 46.7604 7.66283 45.6923 7.04485C42.3692 5.12912 39.1055 5.12912 35.7231 6.85946C34.0022 7.78643 32.222 8.71339 30.3231 9.14598C26.5846 9.94935 23.0242 9.39317 19.6418 7.60103C18.3956 6.92126 17.1495 6.30328 15.844 5.8707C13.5297 5.19092 11.2747 5.56171 9.13846 6.61227C7.77363 7.29204 6.40879 7.97182 4.98462 8.5898C3.38242 9.26957 1.72088 9.51676 0 9.45497V3.95497Z" fill="#1893BB"/>
<path d="M0 16.5001C1.54286 16.5619 2.96703 16.1293 4.33187 15.4495C5.75604 14.7697 7.12088 13.9664 8.54506 13.472C12.5209 12.0506 16.4374 12.2978 20.2352 14.2136C21.5407 14.8315 22.7868 15.5731 24.0923 16.0675C26.644 16.9945 29.1363 16.6237 31.5692 15.3877C33.2308 14.5843 34.8923 13.7192 36.6725 13.163C40.4703 11.9888 44.1495 12.545 47.7099 14.399C48.8967 15.0169 50.0835 15.6349 51.3297 16.1293C52.1604 16.4383 53.1099 16.5001 54.0593 16.6855C54.0593 18.4158 54.0593 20.2079 54.0593 22.0001C52.8725 22.0619 51.6857 21.8765 50.5582 21.6293C48.8967 21.2585 47.3539 20.5169 45.8703 19.6518C43.6154 18.354 41.2418 17.736 38.7495 18.2922C37.622 18.5394 36.5538 19.0338 35.5451 19.5282C33.7055 20.4551 31.9253 21.3821 29.9077 21.7529C26.3473 22.3709 22.9648 21.8147 19.7604 20.0843C18.5736 19.4664 17.3275 18.7866 16.0813 18.4158C13.7077 17.736 11.3934 18.045 9.1978 19.1574C8.18901 19.7136 7.12088 20.2697 6.05275 20.7641C4.15385 21.6293 2.1956 22.0619 0.118681 22.0001V16.5001H0Z" fill="#1893BB"/>
</g>
<defs>
<clipPath id="clip0_263_1788">
<rect width="54" height="22" fill="white"/>
</clipPath>
</defs>
</svg>
