<svg width="77" height="5" viewBox="0 0 77 5" fill="none" xmlns="http://www.w3.org/2000/svg">
<path d="M69.2152 2.46501C68.5986 2.19488 67.9049 1.92474 67.2883 1.74465C62.4324 -0.0562774 57.3453 -0.506509 52.1812 0.664091C51.9499 0.754138 51.7958 0.754138 51.5646 0.844184C49.3293 1.38446 47.2482 2.19488 45.0901 3.00529C41.6216 4.35598 38.0761 4.62612 34.3764 3.72566C33.8368 3.63561 33.3744 3.45552 32.8348 3.27543C31.6787 2.91524 30.5996 2.46501 29.5205 2.01478C28.9039 1.74465 28.2102 1.56455 27.5936 1.29442C26.2062 0.844184 24.7417 0.483998 23.3544 0.303905C21.6587 0.0337667 19.8859 -0.0562787 18.1131 0.0337674C16.7257 0.123814 15.4154 0.303905 14.028 0.574043C13.8739 0.574043 13.7197 0.664091 13.5656 0.664091C12.1782 0.93423 10.8679 1.38446 9.55756 1.92474C8.55556 2.28492 7.55355 2.64511 6.55155 3.09534C6.32032 3.18538 6.08909 3.27543 5.78078 3.36548C4.39339 3.81571 3.00601 4.17589 1.54154 4.26594C1.002 4.26594 0.53954 4.35598 0 4.35598V4.62612V4.89626C2.46647 4.98631 4.77878 4.71617 7.09109 3.9958C9.09509 3.36548 11.0991 2.64511 13.026 1.92474C16.1091 0.754136 19.3463 0.393953 22.5836 1.11432C24.4334 1.56455 26.2833 2.19488 27.979 2.91525C32.8348 4.89626 37.9219 5.43654 43.2402 4.62612C46.015 4.17589 48.4815 3.18539 50.9479 2.19488C55.7267 0.303908 60.4284 0.303905 65.1301 2.37497C66.6717 3.00529 68.2903 3.63561 69.986 4.08585C72.2212 4.71617 74.5335 5.07635 77 4.98631V4.53608C75.7668 4.53608 74.6106 4.44603 73.5315 4.17589C71.99 3.63561 70.6026 3.09534 69.2152 2.46501Z" fill="#272655"/>
</svg>
