<svg width="27" height="15" viewBox="0 0 27 15" fill="none" xmlns="http://www.w3.org/2000/svg">
<path d="M1.18541 8.68437C0.871019 8.68437 0.569503 8.55959 0.347196 8.33748C0.124888 8.11536 -1.47405e-06 7.81411 -1.46032e-06 7.5C-1.44659e-06 7.18588 0.124888 6.88463 0.347196 6.66252C0.569503 6.44041 0.871019 6.31562 1.18541 6.31562L15.8055 6.31562L15.8055 1.18333C15.8057 0.949238 15.8753 0.720453 16.0056 0.525875C16.1359 0.331297 16.3209 0.179654 16.5374 0.0900969C16.7539 0.000540157 16.992 -0.0229126 17.2219 0.0227006C17.4517 0.0683139 17.6628 0.180947 17.8286 0.346375L26.6533 6.66304C26.8753 6.88511 27 7.18614 27 7.5C27 7.81386 26.8753 8.11489 26.6533 8.33696L17.8286 14.6536C17.6628 14.8191 17.4517 14.9317 17.2219 14.9773C16.992 15.0229 16.7539 14.9995 16.5374 14.9099C16.3209 14.8203 16.1359 14.6687 16.0056 14.4741C15.8753 14.2795 15.8057 14.0508 15.8055 13.8167L15.8055 8.68437L1.18541 8.68437Z" fill="#090A3A"/>
</svg>
