<svg width="9" height="16" viewBox="0 0 9 16" fill="none" xmlns="http://www.w3.org/2000/svg">
<path id="Vector" d="M0.329022 0.840615C0.118117 1.05158 -0.000362386 1.33768 -0.000362383 1.63599C-0.000362379 1.9343 0.118117 2.2204 0.329022 2.43137L5.89777 8.00012L0.329023 13.5689C0.124095 13.781 0.0107013 14.0652 0.0132648 14.3602C0.0158283 14.6552 0.134143 14.9373 0.342727 15.1459C0.551311 15.3545 0.833475 15.4728 1.12845 15.4754C1.42342 15.4779 1.70759 15.3645 1.91977 15.1596L8.2839 8.79549C8.4948 8.58452 8.61328 8.29843 8.61328 8.00012C8.61328 7.70181 8.4948 7.41571 8.2839 7.20474L1.91977 0.840615C1.7088 0.62971 1.42271 0.511231 1.1244 0.511231C0.826087 0.511231 0.539991 0.62971 0.329022 0.840615Z" fill="#F7931D"/>
</svg>
