<svg width="24" height="14" viewBox="0 0 24 14" fill="none" xmlns="http://www.w3.org/2000/svg">
<path d="M12.7239 13.24L23.3439 2.09397C23.5212 1.90799 23.6201 1.66091 23.6201 1.40397C23.6201 1.14703 23.5212 0.899948 23.3439 0.713972L23.3319 0.701971C23.246 0.611501 23.1425 0.539462 23.0279 0.490234C22.9132 0.441007 22.7897 0.415621 22.6649 0.415621C22.5401 0.415621 22.4167 0.441007 22.302 0.490234C22.1873 0.539462 22.0839 0.611501 21.9979 0.701971L11.9979 11.198L2.00193 0.701969C1.91598 0.611499 1.81253 0.53946 1.69786 0.490232C1.5832 0.441005 1.45971 0.415619 1.33493 0.415619C1.21014 0.415619 1.08666 0.441005 0.971994 0.490232C0.857328 0.53946 0.753875 0.611499 0.667928 0.701969L0.655927 0.71397C0.478637 0.899946 0.379735 1.14703 0.379735 1.40397C0.379735 1.66091 0.478637 1.90799 0.655927 2.09397L11.2759 13.24C11.3693 13.338 11.4816 13.416 11.6061 13.4694C11.7306 13.5227 11.8645 13.5502 11.9999 13.5502C12.1353 13.5502 12.2693 13.5227 12.3938 13.4694C12.5182 13.416 12.6305 13.338 12.7239 13.24Z" fill="#F7931D"/>
</svg>
