<svg width="46" height="46" viewBox="0 0 46 46" fill="none" xmlns="http://www.w3.org/2000/svg">
<g clip-path="url(#clip0_263_2133)">
<path d="M23 13.8L34.7139 19.6569C35.0527 19.8263 35.2667 20.1726 35.2667 20.5514V43.4667C35.2667 44.019 34.819 44.4667 34.2667 44.4667H11.7333C11.181 44.4667 10.7333 44.019 10.7333 43.4667V20.5514C10.7333 20.1726 10.9473 19.8263 11.2861 19.6569L23 13.8ZM23 13.8V0M0 44.4667H46M4.6 44.4667V27.0667C4.6 26.5144 5.04772 26.0667 5.6 26.0667H10.7333M41.4 44.4667V27.0667C41.4 26.5144 40.9523 26.0667 40.4 26.0667H35.2667M19.9333 44.4667V36.2667C19.9333 35.7144 20.381 35.2667 20.9333 35.2667H25.0667C25.619 35.2667 26.0667 35.7144 26.0667 36.2667V44.4667M23 1.53333H31.2C31.7523 1.53333 32.2 1.98105 32.2 2.53333V6.66667C32.2 7.21895 31.7523 7.66667 31.2 7.66667H23M23 29.1333C22.1867 29.1333 21.4067 28.8102 20.8315 28.2351C20.2564 27.66 19.9333 26.88 19.9333 26.0667C19.9333 25.2533 20.2564 24.4733 20.8315 23.8982C21.4067 23.3231 22.1867 23 23 23C23.8133 23 24.5933 23.3231 25.1685 23.8982C25.7436 24.4733 26.0667 25.2533 26.0667 26.0667C26.0667 26.88 25.7436 27.66 25.1685 28.2351C24.5933 28.8102 23.8133 29.1333 23 29.1333Z" stroke="#1893BB" stroke-width="2.5"/>
</g>
<defs>
<clipPath id="clip0_263_2133">
<rect width="46" height="46" fill="white"/>
</clipPath>
</defs>
</svg>
