<svg width="52" height="49" viewBox="0 0 52 49" fill="none" xmlns="http://www.w3.org/2000/svg">
<path d="M50.2407 37.6326C46.4104 36.7305 44.4422 34.5138 42.8116 32.0463C41.7889 30.5026 39.5433 30.5967 38.4338 32.0801C35.9011 35.469 32.1142 38.1801 26.1203 38.1801C20.0734 38.1801 16.2744 34.7285 13.7394 31.4819C12.6781 30.1263 10.652 30.1432 9.72333 31.5928C8.03009 34.2388 6.06187 36.675 2 37.6326" stroke="#1893BB" stroke-width="3" stroke-linecap="round" stroke-linejoin="round"/>
<path d="M50.2407 46.1913C46.4104 45.2892 44.4422 43.0725 42.8116 40.605C41.7889 39.0613 39.5433 39.1554 38.4338 40.6388C35.9011 44.0277 32.1142 46.7388 26.1203 46.7388C20.0734 46.7388 16.2744 43.2872 13.7394 40.0406C12.6781 38.685 10.652 38.7019 9.72333 40.1516C8.03009 42.7976 6.06187 45.2337 2 46.1913" stroke="#1893BB" stroke-width="3" stroke-linecap="round" stroke-linejoin="round"/>
<path d="M40.3923 23.7083C39.819 20.3381 38.0716 17.2795 35.4594 15.0742C32.8473 12.8689 29.5389 11.6591 26.1203 11.6591C22.7017 11.6591 19.3934 12.8689 16.7813 15.0742C14.1691 17.2795 12.4216 20.3381 11.8483 23.7083M26.1203 2V4.41203M50.2407 26.1203H47.8286M4.41203 26.1203H2M43.1734 9.06726L42.2255 10.0152M10.0128 10.0128L9.06726 9.06726" stroke="#1893BB" stroke-width="3" stroke-linecap="round"/>
</svg>
