<svg width="51" height="43" viewBox="0 0 51 43" fill="none" xmlns="http://www.w3.org/2000/svg">
<path d="M50.9202 1.37216C50.9012 1.0372 50.767 0.721212 50.5428 0.483933C50.3186 0.246655 50.02 0.104535 49.7035 0.084444C38.6821 -0.601729 29.8477 2.9252 26.0723 9.52161C23.559 13.9154 23.613 19.2836 26.1869 24.3887C24.5366 26.3882 23.3864 28.7938 22.8415 31.3854L18.5626 26.8543C20.3239 23.1719 20.3131 19.3179 18.4935 16.1386C15.7252 11.3011 9.29169 8.70735 1.27416 9.21055C0.957328 9.23069 0.658484 9.37314 0.434246 9.61089C0.210008 9.84864 0.0759541 10.1652 0.0574813 10.5006C-0.41363 18.9839 2.03269 25.7931 6.60334 28.723C8.09193 29.6859 9.80324 30.1942 11.5478 30.1914C13.3546 30.1719 15.1315 29.7018 16.7344 28.8191L22.4742 34.8757V41.6277C22.4742 41.9916 22.6108 42.3407 22.8539 42.598C23.0971 42.8554 23.4269 43 23.7708 43C24.1147 43 24.4445 42.8554 24.6877 42.598C24.9308 42.3407 25.0674 41.9916 25.0674 41.6277V34.8826C25.0588 31.7387 26.1136 28.6953 28.0411 26.3031C30.4636 27.6595 32.951 28.3411 35.3498 28.3411C37.696 28.3492 39.9988 27.6709 42.0037 26.3809C48.2362 22.3896 51.5685 13.0371 50.9202 1.37216ZM7.94752 26.374C4.42282 24.1165 2.46058 18.7552 2.59241 11.8935C9.07559 11.7448 14.1346 13.8239 16.2676 17.5544C17.4951 19.6976 17.5988 22.2158 16.6004 24.7798L10.8563 18.698C10.613 18.4405 10.283 18.2959 9.93893 18.2959C9.59485 18.2959 9.26486 18.4405 9.02156 18.698C8.77826 18.9555 8.64158 19.3048 8.64158 19.669C8.64158 20.0331 8.77826 20.3824 9.02156 20.6399L14.7743 26.7263C12.3518 27.783 9.97243 27.6755 7.94752 26.374ZM40.6617 24.0365C37.4763 26.0767 33.716 26.1362 29.9277 24.2423L41.9777 11.4909C42.0982 11.3634 42.1938 11.2121 42.259 11.0455C42.3242 10.8789 42.3577 10.7003 42.3577 10.52C42.3577 10.3397 42.3242 10.1611 42.259 9.99453C42.1938 9.82794 42.0982 9.67656 41.9777 9.54906C41.8573 9.42155 41.7143 9.32041 41.5569 9.25141C41.3994 9.1824 41.2307 9.14688 41.0604 9.14688C40.89 9.14688 40.7213 9.1824 40.5639 9.25141C40.4065 9.32041 40.2635 9.42155 40.143 9.54906L28.0929 22.3027C26.3036 18.2932 26.3641 14.3134 28.2874 10.9443C31.4253 5.45489 38.8896 2.4403 48.3853 2.76738C48.6943 12.8084 45.8439 20.7131 40.6617 24.0365Z" fill="#1893BB"/>
</svg>
